<mxfile host="app.diagrams.net" modified="2020-11-04T10:49:51.629Z" agent="5.0 (Windows NT 10.0; Win64; x64) AppleWebKit/537.36 (KHTML, like Gecko) Chrome/86.0.4240.111 Safari/537.36" etag="iD3dYFJ3f6GAfTn9xuXQ" version="13.8.8" type="github">
  <diagram id="C5RBs43oDa-KdzZeNtuy" name="Page-1">
    <mxGraphModel dx="2857" dy="4270" grid="1" gridSize="10" guides="1" tooltips="1" connect="1" arrows="1" fold="1" page="1" pageScale="1" pageWidth="1654" pageHeight="2336" math="0" shadow="0">
      <root>
        <mxCell id="WIyWlLk6GJQsqaUBKTNV-0" />
        <mxCell id="WIyWlLk6GJQsqaUBKTNV-1" parent="WIyWlLk6GJQsqaUBKTNV-0" />
        <mxCell id="WIyWlLk6GJQsqaUBKTNV-3" value="Сканирование BD1 на поиск всех ключей по маске &lt;b&gt;M&lt;/b&gt; или и по типу primary_kay" style="rounded=1;whiteSpace=wrap;html=1;fontSize=12;glass=0;strokeWidth=2;shadow=0;fontFamily=Verdana;" parent="WIyWlLk6GJQsqaUBKTNV-1" vertex="1">
          <mxGeometry x="480" y="190" width="238" height="89" as="geometry" />
        </mxCell>
        <mxCell id="l-9b-xkoNXXHcV3tmqy1-16" style="edgeStyle=orthogonalEdgeStyle;curved=1;rounded=0;orthogonalLoop=1;jettySize=auto;html=1;entryX=0.5;entryY=0;entryDx=0;entryDy=0;fontFamily=Verdana;strokeWidth=2;exitX=0.5;exitY=1;exitDx=0;exitDy=0;" parent="WIyWlLk6GJQsqaUBKTNV-1" source="WIyWlLk6GJQsqaUBKTNV-3" target="l-9b-xkoNXXHcV3tmqy1-4" edge="1">
          <mxGeometry relative="1" as="geometry">
            <Array as="points">
              <mxPoint x="599" y="300" />
              <mxPoint x="319" y="300" />
            </Array>
          </mxGeometry>
        </mxCell>
        <mxCell id="enPCNe7Kc10emZnH7GVA-27" style="edgeStyle=orthogonalEdgeStyle;curved=1;rounded=0;orthogonalLoop=1;jettySize=auto;html=1;entryX=1;entryY=0.5;entryDx=0;entryDy=0;shadow=0;strokeWidth=2;fontFamily=Verdana;" edge="1" parent="WIyWlLk6GJQsqaUBKTNV-1" source="7VdtZipGaVlqs8qHtxKN-2" target="WIyWlLk6GJQsqaUBKTNV-3">
          <mxGeometry relative="1" as="geometry" />
        </mxCell>
        <mxCell id="7VdtZipGaVlqs8qHtxKN-2" value="&lt;b&gt;BD_dumb&lt;/b&gt;&lt;br&gt;Оригинальная копия данных&amp;nbsp;" style="shape=cylinder3;whiteSpace=wrap;html=1;boundedLbl=1;backgroundOutline=1;size=15;fontFamily=Verdana;strokeWidth=2;" parent="WIyWlLk6GJQsqaUBKTNV-1" vertex="1">
          <mxGeometry x="886.25" y="100" width="143.75" height="140" as="geometry" />
        </mxCell>
        <mxCell id="l-9b-xkoNXXHcV3tmqy1-0" value="&lt;b&gt;BD_for_work&lt;br&gt;&lt;/b&gt;Рабочие таблицы для&amp;nbsp;&lt;br&gt;работы приложения" style="shape=cylinder3;whiteSpace=wrap;html=1;boundedLbl=1;backgroundOutline=1;size=15;fontFamily=Verdana;strokeWidth=2;" parent="WIyWlLk6GJQsqaUBKTNV-1" vertex="1">
          <mxGeometry x="680" y="400" width="160" height="160" as="geometry" />
        </mxCell>
        <mxCell id="l-9b-xkoNXXHcV3tmqy1-1" value="&lt;b&gt;BD_result&lt;/b&gt;&lt;br&gt;Сжатая копия данных" style="shape=cylinder3;whiteSpace=wrap;html=1;boundedLbl=1;backgroundOutline=1;size=15;fontFamily=Verdana;strokeWidth=2;" parent="WIyWlLk6GJQsqaUBKTNV-1" vertex="1">
          <mxGeometry x="1320" y="1340" width="160" height="160" as="geometry" />
        </mxCell>
        <mxCell id="l-9b-xkoNXXHcV3tmqy1-7" style="edgeStyle=orthogonalEdgeStyle;curved=1;rounded=0;orthogonalLoop=1;jettySize=auto;html=1;entryX=0;entryY=0.5;entryDx=0;entryDy=0;entryPerimeter=0;fontFamily=Verdana;strokeWidth=2;" parent="WIyWlLk6GJQsqaUBKTNV-1" source="l-9b-xkoNXXHcV3tmqy1-4" target="l-9b-xkoNXXHcV3tmqy1-0" edge="1">
          <mxGeometry relative="1" as="geometry" />
        </mxCell>
        <mxCell id="l-9b-xkoNXXHcV3tmqy1-21" style="edgeStyle=orthogonalEdgeStyle;curved=1;rounded=0;orthogonalLoop=1;jettySize=auto;html=1;entryX=0.5;entryY=0;entryDx=0;entryDy=0;fontFamily=Verdana;strokeWidth=2;" parent="WIyWlLk6GJQsqaUBKTNV-1" source="l-9b-xkoNXXHcV3tmqy1-4" target="l-9b-xkoNXXHcV3tmqy1-19" edge="1">
          <mxGeometry relative="1" as="geometry" />
        </mxCell>
        <mxCell id="l-9b-xkoNXXHcV3tmqy1-4" value="Наполняем таблицу&amp;nbsp;&lt;br&gt;&lt;span style=&quot;font-weight: 700 ; text-align: left&quot;&gt;kay_primary_tabels&lt;/span&gt;" style="whiteSpace=wrap;html=1;rounded=1;shadow=0;strokeWidth=2;glass=0;fontFamily=Verdana;" parent="WIyWlLk6GJQsqaUBKTNV-1" vertex="1">
          <mxGeometry x="199" y="380" width="240" height="60" as="geometry" />
        </mxCell>
        <mxCell id="l-9b-xkoNXXHcV3tmqy1-11" value="kay_primary_tabels" style="swimlane;fontStyle=1;childLayout=stackLayout;horizontal=1;startSize=26;fillColor=none;horizontalStack=0;resizeParent=1;resizeParentMax=0;resizeLast=0;collapsible=1;marginBottom=0;align=left;fontFamily=Verdana;strokeWidth=2;" parent="WIyWlLk6GJQsqaUBKTNV-1" vertex="1">
          <mxGeometry x="980" y="300" width="390" height="78" as="geometry" />
        </mxCell>
        <mxCell id="l-9b-xkoNXXHcV3tmqy1-12" value="name_primary_kay - название ключа" style="text;strokeColor=none;fillColor=none;align=left;verticalAlign=top;spacingLeft=4;spacingRight=4;overflow=hidden;rotatable=0;points=[[0,0.5],[1,0.5]];portConstraint=eastwest;fontFamily=Verdana;strokeWidth=2;" parent="l-9b-xkoNXXHcV3tmqy1-11" vertex="1">
          <mxGeometry y="26" width="390" height="26" as="geometry" />
        </mxCell>
        <mxCell id="l-9b-xkoNXXHcV3tmqy1-13" value="table_name - название таблицы, где этот ключ указан как primary_kay" style="text;strokeColor=none;fillColor=none;align=left;verticalAlign=top;spacingLeft=4;spacingRight=4;overflow=hidden;rotatable=0;points=[[0,0.5],[1,0.5]];portConstraint=eastwest;fontFamily=Verdana;strokeWidth=2;" parent="l-9b-xkoNXXHcV3tmqy1-11" vertex="1">
          <mxGeometry y="52" width="390" height="26" as="geometry" />
        </mxCell>
        <mxCell id="l-9b-xkoNXXHcV3tmqy1-27" style="edgeStyle=orthogonalEdgeStyle;curved=1;rounded=0;orthogonalLoop=1;jettySize=auto;html=1;fontFamily=Verdana;strokeWidth=2;" parent="WIyWlLk6GJQsqaUBKTNV-1" source="l-9b-xkoNXXHcV3tmqy1-19" target="l-9b-xkoNXXHcV3tmqy1-0" edge="1">
          <mxGeometry relative="1" as="geometry" />
        </mxCell>
        <mxCell id="l-9b-xkoNXXHcV3tmqy1-19" value="Наполняем таблицу&amp;nbsp;&lt;br&gt;&lt;span style=&quot;font-weight: 700 ; text-align: left&quot;&gt;kay_column_tabels&lt;/span&gt;" style="whiteSpace=wrap;html=1;rounded=1;shadow=0;strokeWidth=2;glass=0;fontFamily=Verdana;" parent="WIyWlLk6GJQsqaUBKTNV-1" vertex="1">
          <mxGeometry x="199" y="500" width="240" height="60" as="geometry" />
        </mxCell>
        <mxCell id="l-9b-xkoNXXHcV3tmqy1-20" value="" style="endArrow=none;dashed=1;html=1;entryX=0;entryY=0.25;entryDx=0;entryDy=0;fontFamily=Verdana;strokeWidth=2;" parent="WIyWlLk6GJQsqaUBKTNV-1" source="l-9b-xkoNXXHcV3tmqy1-0" target="l-9b-xkoNXXHcV3tmqy1-11" edge="1">
          <mxGeometry width="50" height="50" relative="1" as="geometry">
            <mxPoint x="870" y="408" as="sourcePoint" />
            <mxPoint x="920" y="358" as="targetPoint" />
          </mxGeometry>
        </mxCell>
        <mxCell id="l-9b-xkoNXXHcV3tmqy1-22" value="kay_column_tabels" style="swimlane;fontStyle=1;childLayout=stackLayout;horizontal=1;startSize=26;fillColor=none;horizontalStack=0;resizeParent=1;resizeParentMax=0;resizeLast=0;collapsible=1;marginBottom=0;align=left;fontFamily=Verdana;strokeWidth=2;" parent="WIyWlLk6GJQsqaUBKTNV-1" vertex="1">
          <mxGeometry x="980" y="450" width="390" height="78" as="geometry" />
        </mxCell>
        <mxCell id="l-9b-xkoNXXHcV3tmqy1-23" value="name_primary_kay - название ключа" style="text;strokeColor=none;fillColor=none;align=left;verticalAlign=top;spacingLeft=4;spacingRight=4;overflow=hidden;rotatable=0;points=[[0,0.5],[1,0.5]];portConstraint=eastwest;fontFamily=Verdana;strokeWidth=2;" parent="l-9b-xkoNXXHcV3tmqy1-22" vertex="1">
          <mxGeometry y="26" width="390" height="26" as="geometry" />
        </mxCell>
        <mxCell id="l-9b-xkoNXXHcV3tmqy1-24" value="table_name - таблицы, где этот ключ есть в колонках" style="text;strokeColor=none;fillColor=none;align=left;verticalAlign=top;spacingLeft=4;spacingRight=4;overflow=hidden;rotatable=0;points=[[0,0.5],[1,0.5]];portConstraint=eastwest;fontFamily=Verdana;strokeWidth=2;" parent="l-9b-xkoNXXHcV3tmqy1-22" vertex="1">
          <mxGeometry y="52" width="390" height="26" as="geometry" />
        </mxCell>
        <mxCell id="l-9b-xkoNXXHcV3tmqy1-25" value="" style="endArrow=none;dashed=1;html=1;entryX=0;entryY=0.25;entryDx=0;entryDy=0;fontFamily=Verdana;strokeWidth=2;" parent="WIyWlLk6GJQsqaUBKTNV-1" source="l-9b-xkoNXXHcV3tmqy1-0" target="l-9b-xkoNXXHcV3tmqy1-22" edge="1">
          <mxGeometry width="50" height="50" relative="1" as="geometry">
            <mxPoint x="853.75" y="434.57207207207193" as="sourcePoint" />
            <mxPoint x="990" y="329.5" as="targetPoint" />
          </mxGeometry>
        </mxCell>
        <mxCell id="enPCNe7Kc10emZnH7GVA-7" style="edgeStyle=orthogonalEdgeStyle;curved=1;rounded=0;orthogonalLoop=1;jettySize=auto;html=1;fontFamily=Verdana;strokeWidth=2;" edge="1" parent="WIyWlLk6GJQsqaUBKTNV-1" target="enPCNe7Kc10emZnH7GVA-6">
          <mxGeometry relative="1" as="geometry">
            <mxPoint x="640" y="1030" as="sourcePoint" />
          </mxGeometry>
        </mxCell>
        <mxCell id="l-9b-xkoNXXHcV3tmqy1-34" value="&lt;span style=&quot;font-weight: normal&quot;&gt;Подготовка, заполнение&lt;/span&gt;&amp;nbsp;BD_for_work" style="text;strokeColor=none;fillColor=none;html=1;fontSize=24;fontStyle=1;verticalAlign=middle;align=center;fontFamily=Verdana;strokeWidth=2;" parent="WIyWlLk6GJQsqaUBKTNV-1" vertex="1">
          <mxGeometry x="480" width="627.5" height="90" as="geometry" />
        </mxCell>
        <mxCell id="l-9b-xkoNXXHcV3tmqy1-35" value="&lt;span style=&quot;font-weight: normal&quot;&gt;Первичное заполнение&lt;/span&gt; BD_result&amp;nbsp;" style="text;strokeColor=none;fillColor=none;html=1;fontSize=24;fontStyle=1;verticalAlign=middle;align=center;fontFamily=Verdana;strokeWidth=2;" parent="WIyWlLk6GJQsqaUBKTNV-1" vertex="1">
          <mxGeometry x="527.5" y="650" width="532.5" height="90" as="geometry" />
        </mxCell>
        <mxCell id="l-9b-xkoNXXHcV3tmqy1-36" value="&lt;span style=&quot;font-weight: normal&quot;&gt;Сохранение целостности&lt;/span&gt; BD_result" style="text;strokeColor=none;fillColor=none;html=1;fontSize=24;fontStyle=1;verticalAlign=middle;align=center;fontFamily=Verdana;strokeWidth=2;" parent="WIyWlLk6GJQsqaUBKTNV-1" vertex="1">
          <mxGeometry x="535.62" y="1590" width="516.26" height="90" as="geometry" />
        </mxCell>
        <mxCell id="enPCNe7Kc10emZnH7GVA-5" style="edgeStyle=orthogonalEdgeStyle;curved=1;rounded=0;orthogonalLoop=1;jettySize=auto;html=1;fontFamily=Verdana;strokeWidth=2;" edge="1" parent="WIyWlLk6GJQsqaUBKTNV-1" source="l-9b-xkoNXXHcV3tmqy1-37" target="enPCNe7Kc10emZnH7GVA-12">
          <mxGeometry relative="1" as="geometry" />
        </mxCell>
        <mxCell id="l-9b-xkoNXXHcV3tmqy1-37" value="&lt;b&gt;BD_dumb&lt;/b&gt;&lt;br&gt;Оригинальная копия данных&amp;nbsp;" style="shape=cylinder3;whiteSpace=wrap;html=1;boundedLbl=1;backgroundOutline=1;size=15;fontFamily=Verdana;strokeWidth=2;" parent="WIyWlLk6GJQsqaUBKTNV-1" vertex="1">
          <mxGeometry x="560" y="760" width="160" height="160" as="geometry" />
        </mxCell>
        <mxCell id="enPCNe7Kc10emZnH7GVA-2" value="&lt;b&gt;N&lt;/b&gt;-порог строк для &lt;br&gt;копирования &lt;br&gt;таблицы целиком" style="shape=parallelogram;html=1;strokeWidth=2;perimeter=parallelogramPerimeter;whiteSpace=wrap;rounded=1;arcSize=50;size=0.23;gradientColor=none;align=center;fontFamily=Verdana;" vertex="1" parent="WIyWlLk6GJQsqaUBKTNV-1">
          <mxGeometry x="190" y="770" width="260" height="60" as="geometry" />
        </mxCell>
        <mxCell id="enPCNe7Kc10emZnH7GVA-3" value="&lt;b&gt;L&lt;/b&gt;-сколько записей&amp;nbsp;&lt;br&gt;скопировать&amp;nbsp;из табилиц,&amp;nbsp;где &lt;br&gt;строк больше&amp;nbsp;&lt;b&gt;N&lt;/b&gt;" style="shape=parallelogram;html=1;strokeWidth=2;perimeter=parallelogramPerimeter;whiteSpace=wrap;rounded=1;arcSize=50;size=0.23;gradientColor=none;align=center;fontFamily=Verdana;" vertex="1" parent="WIyWlLk6GJQsqaUBKTNV-1">
          <mxGeometry x="190" y="852" width="260" height="60" as="geometry" />
        </mxCell>
        <mxCell id="enPCNe7Kc10emZnH7GVA-4" value="&lt;b&gt;M - &lt;/b&gt;маска, название &lt;br&gt;талиц которых исключить" style="shape=parallelogram;html=1;strokeWidth=2;perimeter=parallelogramPerimeter;whiteSpace=wrap;rounded=1;arcSize=50;size=0.23;gradientColor=none;align=center;fontFamily=Verdana;dashed=1;" vertex="1" parent="WIyWlLk6GJQsqaUBKTNV-1">
          <mxGeometry x="190" y="930" width="260" height="60" as="geometry" />
        </mxCell>
        <mxCell id="enPCNe7Kc10emZnH7GVA-10" style="edgeStyle=orthogonalEdgeStyle;curved=1;rounded=0;orthogonalLoop=1;jettySize=auto;html=1;shadow=0;fontFamily=Verdana;strokeWidth=2;exitX=1;exitY=0.5;exitDx=0;exitDy=0;entryX=0;entryY=0;entryDx=0;entryDy=47.5;entryPerimeter=0;" edge="1" parent="WIyWlLk6GJQsqaUBKTNV-1" source="enPCNe7Kc10emZnH7GVA-14" target="l-9b-xkoNXXHcV3tmqy1-1">
          <mxGeometry relative="1" as="geometry">
            <mxPoint x="510" y="1490" as="sourcePoint" />
          </mxGeometry>
        </mxCell>
        <mxCell id="enPCNe7Kc10emZnH7GVA-17" style="edgeStyle=orthogonalEdgeStyle;curved=1;rounded=0;orthogonalLoop=1;jettySize=auto;html=1;shadow=0;strokeWidth=2;fontFamily=Verdana;entryX=0;entryY=0.5;entryDx=0;entryDy=0;entryPerimeter=0;" edge="1" parent="WIyWlLk6GJQsqaUBKTNV-1" source="enPCNe7Kc10emZnH7GVA-6" target="enPCNe7Kc10emZnH7GVA-12">
          <mxGeometry relative="1" as="geometry">
            <Array as="points">
              <mxPoint x="390" y="1210" />
              <mxPoint x="390" y="1040" />
            </Array>
          </mxGeometry>
        </mxCell>
        <mxCell id="enPCNe7Kc10emZnH7GVA-18" style="edgeStyle=orthogonalEdgeStyle;curved=1;rounded=0;orthogonalLoop=1;jettySize=auto;html=1;entryX=0.5;entryY=0;entryDx=0;entryDy=0;shadow=0;strokeWidth=2;fontFamily=Verdana;" edge="1" parent="WIyWlLk6GJQsqaUBKTNV-1" source="enPCNe7Kc10emZnH7GVA-6" target="enPCNe7Kc10emZnH7GVA-14">
          <mxGeometry relative="1" as="geometry" />
        </mxCell>
        <mxCell id="enPCNe7Kc10emZnH7GVA-6" value="Таблица проходит маску&amp;nbsp;&lt;b&gt;M&lt;/b&gt;?" style="rhombus;whiteSpace=wrap;html=1;fontFamily=Verdana;rounded=0;sketch=0;shadow=0;strokeWidth=2;" vertex="1" parent="WIyWlLk6GJQsqaUBKTNV-1">
          <mxGeometry x="520" y="1140" width="240" height="140" as="geometry" />
        </mxCell>
        <mxCell id="enPCNe7Kc10emZnH7GVA-9" value="Да" style="text;html=1;align=center;verticalAlign=middle;resizable=0;points=[];autosize=1;fontFamily=Verdana;strokeWidth=2;" vertex="1" parent="WIyWlLk6GJQsqaUBKTNV-1">
          <mxGeometry x="1030" y="1320" width="30" height="20" as="geometry" />
        </mxCell>
        <mxCell id="enPCNe7Kc10emZnH7GVA-12" value="&lt;span&gt;Запрос таблицы на анализи в алфавитном порядке&lt;/span&gt;" style="strokeWidth=2;html=1;shape=mxgraph.flowchart.loop_limit;whiteSpace=wrap;rounded=0;shadow=0;sketch=0;gradientColor=none;fontFamily=Verdana;" vertex="1" parent="WIyWlLk6GJQsqaUBKTNV-1">
          <mxGeometry x="560" y="1000" width="160" height="80" as="geometry" />
        </mxCell>
        <mxCell id="enPCNe7Kc10emZnH7GVA-22" style="edgeStyle=orthogonalEdgeStyle;curved=1;rounded=0;orthogonalLoop=1;jettySize=auto;html=1;entryX=0;entryY=0.633;entryDx=0;entryDy=0;entryPerimeter=0;shadow=0;strokeWidth=2;fontFamily=Verdana;" edge="1" parent="WIyWlLk6GJQsqaUBKTNV-1" source="enPCNe7Kc10emZnH7GVA-14" target="enPCNe7Kc10emZnH7GVA-21">
          <mxGeometry relative="1" as="geometry">
            <Array as="points">
              <mxPoint x="680" y="1350" />
              <mxPoint x="680" y="1528" />
            </Array>
          </mxGeometry>
        </mxCell>
        <mxCell id="enPCNe7Kc10emZnH7GVA-14" value="Количество строк &lt;br&gt;в табилце меньше &lt;b&gt;N&lt;/b&gt;?" style="rhombus;whiteSpace=wrap;html=1;fontFamily=Verdana;rounded=0;sketch=0;shadow=0;strokeWidth=2;" vertex="1" parent="WIyWlLk6GJQsqaUBKTNV-1">
          <mxGeometry x="780" y="1280" width="240" height="140" as="geometry" />
        </mxCell>
        <mxCell id="enPCNe7Kc10emZnH7GVA-16" value="Нет" style="text;html=1;align=center;verticalAlign=middle;resizable=0;points=[];autosize=1;fontFamily=Verdana;strokeWidth=2;" vertex="1" parent="WIyWlLk6GJQsqaUBKTNV-1">
          <mxGeometry x="470" y="1180" width="40" height="20" as="geometry" />
        </mxCell>
        <mxCell id="enPCNe7Kc10emZnH7GVA-19" value="Да" style="text;html=1;align=center;verticalAlign=middle;resizable=0;points=[];autosize=1;fontFamily=Verdana;strokeWidth=2;" vertex="1" parent="WIyWlLk6GJQsqaUBKTNV-1">
          <mxGeometry x="797" y="1180" width="30" height="20" as="geometry" />
        </mxCell>
        <mxCell id="enPCNe7Kc10emZnH7GVA-24" style="edgeStyle=orthogonalEdgeStyle;curved=1;rounded=0;orthogonalLoop=1;jettySize=auto;html=1;entryX=0;entryY=0;entryDx=0;entryDy=112.5;entryPerimeter=0;shadow=0;strokeWidth=2;fontFamily=Verdana;" edge="1" parent="WIyWlLk6GJQsqaUBKTNV-1" source="enPCNe7Kc10emZnH7GVA-21" target="l-9b-xkoNXXHcV3tmqy1-1">
          <mxGeometry relative="1" as="geometry" />
        </mxCell>
        <mxCell id="enPCNe7Kc10emZnH7GVA-21" value="Берём последние &lt;b&gt;L&lt;/b&gt; строк" style="whiteSpace=wrap;html=1;rounded=1;shadow=0;strokeWidth=2;glass=0;fontFamily=Verdana;" vertex="1" parent="WIyWlLk6GJQsqaUBKTNV-1">
          <mxGeometry x="780" y="1490" width="240" height="60" as="geometry" />
        </mxCell>
        <mxCell id="enPCNe7Kc10emZnH7GVA-23" value="Нет" style="text;html=1;align=center;verticalAlign=middle;resizable=0;points=[];autosize=1;fontFamily=Verdana;strokeWidth=2;" vertex="1" parent="WIyWlLk6GJQsqaUBKTNV-1">
          <mxGeometry x="730" y="1320" width="40" height="20" as="geometry" />
        </mxCell>
        <mxCell id="enPCNe7Kc10emZnH7GVA-26" value="&lt;b&gt;M - &lt;/b&gt;маска, название &lt;br&gt;ключе, для которых &lt;br&gt;необходима целостность" style="shape=parallelogram;html=1;strokeWidth=2;perimeter=parallelogramPerimeter;whiteSpace=wrap;rounded=1;arcSize=50;size=0.23;gradientColor=none;align=center;fontFamily=Verdana;dashed=1;" vertex="1" parent="WIyWlLk6GJQsqaUBKTNV-1">
          <mxGeometry x="189" y="90" width="260" height="60" as="geometry" />
        </mxCell>
        <mxCell id="enPCNe7Kc10emZnH7GVA-28" value="&lt;div&gt;&lt;br&gt;&lt;/div&gt;&lt;div&gt;- Пробегаем BD3 с поиском всех значений всех ключей из BD2 для каждой таблицы&lt;/div&gt;&lt;div&gt;- Смотрим если есть ли значения primary_kay, которых нет в родительских таблицах для primary_kay&lt;/div&gt;&lt;div&gt;- Если есть то копируем значения из BD1&lt;/div&gt;&lt;div&gt;- Повторяем алгоритм рекурсивно, до момента, пока ну будут отсутствующие значения&lt;/div&gt;&lt;div&gt;&lt;br&gt;&lt;/div&gt;&lt;div&gt;Если значения отсутствуют, выходим из цикла и сообщаем, что целостность бд достигнута.&lt;/div&gt;&lt;div&gt;&lt;br&gt;&lt;/div&gt;" style="text;html=1;strokeColor=none;fillColor=none;align=center;verticalAlign=middle;whiteSpace=wrap;rounded=0;shadow=0;sketch=0;fontFamily=Verdana;" vertex="1" parent="WIyWlLk6GJQsqaUBKTNV-1">
          <mxGeometry x="527.5" y="1710" width="760" height="150" as="geometry" />
        </mxCell>
      </root>
    </mxGraphModel>
  </diagram>
</mxfile>
